# Blender 5.0.0
# www.blender.org
mtllib bullet.mtl
o bullet
v 0.000000 -1.000000 -1.399044
v 1.000000 0.000000 -1.399044
v 0.000000 1.000000 -1.399044
v -1.000000 0.000000 -1.399044
v 0.000000 -1.000000 1.399044
v 1.000000 0.000000 1.399044
v 0.000000 1.000000 1.399044
v -1.000000 0.000000 1.399044
v 0.000000 -0.491812 3.265040
v 0.000000 0.000000 3.523299
v 0.491812 0.000000 3.265040
v 0.000000 0.491812 3.265040
v -0.491812 0.000000 3.265040
vn 0.7071 -0.7071 -0.0000
vn -0.6943 -0.6943 0.1891
vn -0.7071 0.7071 -0.0000
vn 0.6943 0.6943 0.1891
vn 0.4216 -0.4216 0.8028
vn 0.4216 0.4216 0.8028
vn -0.4216 0.4216 0.8028
vn 0.6943 -0.6943 0.1891
vn -0.4216 -0.4216 0.8028
vn 0.7071 0.7071 -0.0000
vn -0.6943 0.6943 0.1891
vn -0.7071 -0.7071 -0.0000
s 0
usemtl Material.011
f 1//1 2//1 6//1 5//1
f 3//3 4//3 8//3 7//3
f 2//10 3//10 7//10 6//10
f 4//12 1//12 5//12 8//12
usemtl Material.012
f 9//2 13//2 8//2 5//2
f 11//4 6//4 7//4 12//4
f 9//5 11//5 10//5
f 11//6 12//6 10//6
f 12//7 13//7 10//7
f 9//8 5//8 6//8 11//8
f 13//9 9//9 10//9
f 12//11 7//11 8//11 13//11
