# Blender 5.0.0
# www.blender.org
mtllib octahedron.mtl
o Octahedron
v 0.000000 0.000000 5.000000
v 0.000000 3.125000 0.000000
v -5.000000 0.000000 0.000000
v 5.000000 0.000000 0.000000
v 0.000000 0.000000 -5.000000
v 0.000000 -3.125000 0.000000
vn 0.4683 0.7493 0.4683
vn -0.4683 0.7493 -0.4683
vn 0.4683 0.7493 -0.4683
vn 0.4683 -0.7493 0.4683
vn -0.4683 -0.7493 -0.4683
vn 0.4683 -0.7493 -0.4683
vn -0.4683 0.7493 0.4683
vn -0.4683 -0.7493 0.4683
s 1
usemtl Material.009
f 4//1 2//1 1//1
f 5//3 2//3 4//3
f 5//5 6//5 3//5
f 3//8 6//8 1//8
usemtl Material.010
f 3//2 2//2 5//2
f 1//4 6//4 4//4
f 4//6 6//6 5//6
f 1//7 2//7 3//7
