# Blender 5.0.0
# www.blender.org
mtllib ship.mtl
o StarShip
v 1.831908 -0.000000 -0.329536
v -1.831908 -0.000000 -0.329536
v 1.000000 -1.000000 0.657704
v -1.000000 -1.000000 0.657704
v 0.000000 0.000001 8.660149
v -1.000000 1.000000 0.657704
v 1.000000 1.000000 0.657704
v 4.241611 -1.979379 -2.210845
v 2.428995 -0.979379 -3.056081
v 2.428995 -1.979379 -3.056081
v 0.997162 -1.008333 0.659706
v 7.465978 -2.008334 -8.480310
v -4.234428 -1.979379 -2.202335
v -2.421813 -0.979379 -3.047571
v -2.421813 -1.979379 -3.047571
v -0.989980 -1.008333 0.668216
v -7.458796 -2.008334 -8.471801
v -4.234428 1.964486 -2.202335
v -2.421813 0.964486 -3.047571
v -2.421813 1.964486 -3.047571
v -0.989980 0.993440 0.668216
v -7.458796 1.993439 -8.471801
v 4.241611 1.964486 -2.210845
v 2.428995 0.964486 -3.056081
v 2.428995 1.964486 -3.056081
v 0.997162 0.993440 0.659706
v 7.465978 1.993439 -8.480310
v -1.354525 -0.462685 0.399340
v -0.517383 -0.748640 0.450402
v 0.517383 -0.748640 0.450402
v 1.354525 -0.462685 0.399340
v 1.674285 0.000000 0.399340
v 1.354525 0.462685 0.399340
v 0.517383 0.748640 0.450402
v -0.517383 0.748640 0.450402
v -1.354525 0.462685 0.399340
v -1.674285 0.000000 0.399340
v -0.552946 -0.401739 -1.023330
v -0.211207 -0.650027 -1.023330
v 0.211207 -0.650027 -1.023330
v 0.552946 -0.401739 -1.023330
v 0.683479 -0.000000 -1.023330
v 0.552946 0.401739 -1.023330
v 0.211207 0.650027 -1.023330
v -0.211207 0.650027 -1.023330
v -0.552946 0.401739 -1.023330
v -0.683479 -0.000000 -1.023330
vn 0.7444 -0.0000 -0.6678
vn 0.4009 -0.8923 -0.2076
vn -0.4009 -0.8923 -0.2076
vn -0.7444 -0.0000 -0.6678
vn -0.4009 0.8923 -0.2076
vn 0.4009 0.8923 -0.2076
vn -0.4637 0.8157 -0.3458
vn -0.6499 -0.6933 -0.3115
vn -0.4965 0.1546 0.8542
vn 0.4637 0.8157 -0.3458
vn 0.4965 0.1546 0.8542
vn 0.6499 -0.6933 -0.3115
vn 0.4637 -0.8157 -0.3458
vn 0.6499 0.6933 -0.3115
vn 0.4965 -0.1546 0.8542
vn -0.4637 -0.8157 -0.3458
vn -0.4965 -0.1546 0.8542
vn -0.6499 0.6933 -0.3115
vn -0.0000 -0.0000 1.0000
vn 0.7638 -0.2475 0.5962
vn 0.6102 -0.0489 -0.7908
vn -0.7638 -0.2475 0.5962
vn -0.6102 -0.0489 -0.7908
vn -0.7638 0.2475 0.5962
vn -0.6102 0.0489 -0.7908
vn 0.7638 0.2475 0.5962
vn 0.6102 0.0489 -0.7908
vn -0.6638 -0.6297 -0.4036
vn -0.5916 -0.7279 -0.3467
vn -0.1824 -0.9746 -0.1301
vn -0.2245 -0.9637 -0.1444
vn 0.1824 -0.9746 -0.1301
vn 0.2245 -0.9637 -0.1444
vn 0.5916 -0.7279 -0.3467
vn 0.6638 -0.6297 -0.4036
vn 0.8419 -0.0000 -0.5397
vn 0.5916 0.7279 -0.3467
vn 0.6638 0.6297 -0.4036
vn 0.1824 0.9746 -0.1301
vn 0.2245 0.9637 -0.1444
vn -0.1824 0.9746 -0.1301
vn -0.2245 0.9637 -0.1444
vn -0.5916 0.7279 -0.3467
vn -0.6638 0.6297 -0.4036
vn -0.8419 -0.0000 -0.5397
s 1
usemtl Material.005
f 1//1 3//2 4//3 2//4
f 2//4 6//5 7//6 1//1
f 3//2 5//19 4//3
f 5//19 7//6 6//5
f 2//4 4//3 5//19
f 5//19 3//2 1//1
f 5//19 6//5 2//4
f 1//1 7//6 5//19
f 28//28 38//29 39//30 29//31
f 29//31 39//30 40//32 30//33
f 30//33 40//32 41//34 31//35
f 31//35 41//34 42//36 32//36
f 32//36 42//36 43//37 33//38
f 33//38 43//37 44//39 34//40
f 34//40 44//39 45//41 35//42
f 35//42 45//41 46//43 36//44
f 36//44 46//43 47//45 37//45
f 37//45 47//45 38//29 28//28
usemtl Material.001
f 9//7 10//8 11//9
f 14//10 16//11 15//12
f 19//13 20//14 21//15
f 24//16 26//17 25//18
f 8//20 11//9 10//8
f 11//9 8//20 9//7
f 8//20 12//21 9//7
f 10//8 12//21 8//20
f 13//22 15//12 16//11
f 16//11 14//10 13//22
f 13//22 14//10 17//23
f 15//12 13//22 17//23
f 18//24 21//15 20//14
f 21//15 18//24 19//13
f 18//24 22//25 19//13
f 20//14 22//25 18//24
f 23//26 25//18 26//17
f 26//17 24//16 23//26
f 23//26 24//16 27//27
f 25//18 23//26 27//27
f 9//7 12//21 10//8
f 14//10 15//12 17//23
f 19//13 22//25 20//14
f 24//16 25//18 27//27
